<svg width="45" height="47" viewBox="0 0 45 47" fill="none" xmlns="http://www.w3.org/2000/svg">
<path d="M24.9375 35.7494V36.955L25.7907 36.1032L40.1395 21.7802C41.0887 20.8326 42.6262 20.8333 43.5746 21.7817C44.5236 22.7307 44.5236 24.2693 43.5746 25.2183L23.4377 45.3552C22.9198 45.8731 22.0802 45.8731 21.5623 45.3552L1.43824 25.2311C0.482164 24.2751 0.482164 22.7249 1.43824 21.7689C2.39493 20.8122 3.94624 20.8129 4.90207 21.7704L19.2086 36.1026L20.0625 36.958V35.7494V2.9375C20.0625 1.59131 21.1538 0.5 22.5 0.5C23.8462 0.5 24.9375 1.59131 24.9375 2.9375V35.7494Z" fill="#252422" stroke="white"/>
</svg>
