<svg width="50" height="34" viewBox="0 0 50 34" fill="none" xmlns="http://www.w3.org/2000/svg">
<path d="M0 31.1667C0 32.7315 1.26853 34 2.83334 34H47.1667C48.7315 34 50 32.7315 50 31.1667C50 29.6019 48.7315 28.3333 47.1667 28.3333H2.83334C1.26853 28.3333 0 29.6019 0 31.1667ZM0 17C0 18.5648 1.26853 19.8333 2.83333 19.8333H47.1667C48.7315 19.8333 50 18.5648 50 17C50 15.4352 48.7315 14.1667 47.1667 14.1667H2.83333C1.26852 14.1667 0 15.4352 0 17ZM2.83333 0C1.26852 0 0 1.26853 0 2.83333C0 4.39814 1.26853 5.66667 2.83333 5.66667H47.1667C48.7315 5.66667 50 4.39814 50 2.83333C50 1.26853 48.7315 0 47.1667 0H2.83333Z" fill="#FFFCF2"/>
</svg>
