<svg width="45" height="47" viewBox="0 0 45 47" fill="none" xmlns="http://www.w3.org/2000/svg">
<path d="M20.0625 11.2506L20.0625 10.045L19.2093 10.8968L4.8605 25.2199C3.91126 26.1674 2.37381 26.1667 1.42542 25.2183C0.476421 24.2693 0.476421 22.7307 1.42542 21.7817L21.5623 1.64476C22.0802 1.12691 22.9198 1.12691 23.4377 1.64477L43.5618 21.7689C44.5178 22.7249 44.5178 24.2751 43.5618 25.2311C42.6051 26.1878 41.0538 26.1871 40.0979 25.2296L25.7914 10.8974L24.9375 10.042L24.9375 11.2506L24.9375 44.0625C24.9375 45.4087 23.8462 46.5 22.5 46.5C21.1538 46.5 20.0625 45.4087 20.0625 44.0625L20.0625 11.2506Z" fill="#252422" stroke="white"/>
</svg>
